<svg version="1" xmlns="http://www.w3.org/2000/svg" width="933.333" height="933.333" viewBox="0 0 700.000000 700.000000"><path d="M0 350v350h72l-1.6-3.7c-7.1-16.2-8.9-26-8.1-44.6 1.3-28.8 11.8-57.7 33.2-91.2 21.6-33.8 63.5-75.7 125.2-125.2 10.6-8.5 19.3-15.7 19.3-16 0-.3 2.9-22.4 6.5-49.2 3.5-26.7 8-64.1 9.9-83.1 6.6-64.2 16.3-143.3 18.5-149.5 4.7-13.2 13.4-21.4 26.8-25.1 9.7-2.7 36.6-2.7 43.5-.1 5.7 2.2 10.3 7.2 11.9 12.9 3.2 11.9-4.4 72.2-29.4 234.5-2.9 18.9-5.2 34.3-5.1 34.3.1 0 4.2-4.8 9.2-10.8 4.9-5.9 15.8-18.4 24.3-27.7 31.3-34.7 69.2-84.9 85.6-113.5 9.3-16.2 14.6-27.2 34.3-71.5 10.1-22.6 19.7-43.3 21.5-46 10.6-16.8 32.5-24.5 61.3-21.6 13.2 1.2 19 3.9 21.1 9.4 1.3 3.4 1.2 4.6-.7 12.2-1.1 4.7-5 14.9-8.6 22.7-13.9 30.5-15.2 46.3-5.2 63.1 3.1 5.3 10.4 15.6 27.7 39 28.1 37.8 35.2 51.9 37.9 74.2 3.7 30.7-7.8 64.8-29.7 88.6-22.2 23.9-51.8 35.1-85 31.9-21.3-2-35.1-7.7-46.8-19.5-14.9-14.8-18.8-33.6-10.8-50.7C469 352 489 345 526.9 349.9c9 1.2 16.6 1.9 16.9 1.6.3-.3 0-4.1-.7-8.6-3-19.8-12-37.8-31.2-62.4-10.4-13.3-13.7-17.1-14.2-16.5-.2.3-2.1 3.6-4.2 7.5-21.6 39.8-45.3 71.4-77.5 103.5-22.4 22.3-82.9 76-101.7 90.3l-6.1 4.7-4.2 17.7c-23 97.9-50.1 167-79.6 202.8-2.7 3.3-5.5 6.8-6.3 7.8-1.3 1.6 10.4 1.7 240.3 1.7H700V0H389v7.3c0 8.8-2.9 20.9-6.7 28-4.4 8.1-14.7 17.9-23.4 22.1-11.6 5.5-19.2 7-34.9 6.9-21.7-.2-34.8-4.7-44.4-15.4-8.9-9.9-12.1-20.5-11.4-37.5l.5-11.4H0v350z"/><path d="M210.5 513.9c-26 23.7-45.8 45.7-57.7 64.1-16.7 25.7-24 45.7-24 64.9.1 17.9 5.8 26.1 18.2 26.1 6.6 0 12-2.8 18.6-9.6 16.8-17.2 32.6-51.9 45.8-100.7 5.5-20.2 14-56.6 13.4-57.2-.2-.2-6.6 5.4-14.3 12.4z"/></svg>